<mxfile host="app.diagrams.net" modified="2020-12-07T08:55:32.793Z" agent="5.0 (Macintosh; Intel Mac OS X 10_15_7) AppleWebKit/537.36 (KHTML, like Gecko) Chrome/86.0.4240.198 Safari/537.36" etag="UbGRGk7iw9vw4fqUHIah" version="13.10.4" type="github">
  <diagram id="fZmqz08l0wKaYfAE1M2B" name="Page-1">
    <mxGraphModel dx="1258" dy="843" grid="1" gridSize="10" guides="1" tooltips="1" connect="1" arrows="1" fold="1" page="1" pageScale="1" pageWidth="827" pageHeight="1169" math="0" shadow="0">
      <root>
        <mxCell id="0" />
        <mxCell id="1" parent="0" />
        <mxCell id="Ygmw0eHIz2YQ1cM95j57-1" value="功能层" style="text;html=1;strokeColor=none;fillColor=none;align=center;verticalAlign=middle;whiteSpace=wrap;rounded=0;" vertex="1" parent="1">
          <mxGeometry x="90" y="252.5" width="80" height="30" as="geometry" />
        </mxCell>
        <mxCell id="Ygmw0eHIz2YQ1cM95j57-2" value="名单列表" style="rounded=0;whiteSpace=wrap;html=1;" vertex="1" parent="1">
          <mxGeometry x="190" y="245" width="100" height="45" as="geometry" />
        </mxCell>
        <mxCell id="Ygmw0eHIz2YQ1cM95j57-3" value="名单创建" style="rounded=0;whiteSpace=wrap;html=1;" vertex="1" parent="1">
          <mxGeometry x="310" y="245" width="100" height="45" as="geometry" />
        </mxCell>
        <mxCell id="Ygmw0eHIz2YQ1cM95j57-4" value="名单查询" style="rounded=0;whiteSpace=wrap;html=1;" vertex="1" parent="1">
          <mxGeometry x="430" y="245" width="100" height="45" as="geometry" />
        </mxCell>
        <mxCell id="Ygmw0eHIz2YQ1cM95j57-5" value="名单导入&amp;amp;导出" style="rounded=0;whiteSpace=wrap;html=1;" vertex="1" parent="1">
          <mxGeometry x="550" y="245" width="100" height="45" as="geometry" />
        </mxCell>
        <mxCell id="Ygmw0eHIz2YQ1cM95j57-6" value="名单因子" style="rounded=0;whiteSpace=wrap;html=1;" vertex="1" parent="1">
          <mxGeometry x="670" y="245" width="100" height="45" as="geometry" />
        </mxCell>
        <mxCell id="Ygmw0eHIz2YQ1cM95j57-8" value="业务模块" style="text;html=1;strokeColor=none;fillColor=none;align=center;verticalAlign=middle;whiteSpace=wrap;rounded=0;" vertex="1" parent="1">
          <mxGeometry x="90" y="340" width="80" height="30" as="geometry" />
        </mxCell>
        <mxCell id="Ygmw0eHIz2YQ1cM95j57-9" value="" style="endArrow=none;dashed=1;html=1;" edge="1" parent="1">
          <mxGeometry width="50" height="50" relative="1" as="geometry">
            <mxPoint x="70" y="310" as="sourcePoint" />
            <mxPoint x="920" y="310" as="targetPoint" />
          </mxGeometry>
        </mxCell>
        <mxCell id="Ygmw0eHIz2YQ1cM95j57-10" value="列表接口" style="rounded=0;whiteSpace=wrap;html=1;" vertex="1" parent="1">
          <mxGeometry x="190" y="330" width="100" height="40" as="geometry" />
        </mxCell>
        <mxCell id="Ygmw0eHIz2YQ1cM95j57-11" value="创建接口" style="rounded=0;whiteSpace=wrap;html=1;" vertex="1" parent="1">
          <mxGeometry x="314" y="330" width="100" height="40" as="geometry" />
        </mxCell>
        <mxCell id="Ygmw0eHIz2YQ1cM95j57-12" value="修改接口" style="rounded=0;whiteSpace=wrap;html=1;" vertex="1" parent="1">
          <mxGeometry x="430" y="330" width="100" height="40" as="geometry" />
        </mxCell>
        <mxCell id="Ygmw0eHIz2YQ1cM95j57-13" value="操作记录&lt;br&gt;列表接口" style="rounded=0;whiteSpace=wrap;html=1;" vertex="1" parent="1">
          <mxGeometry x="550" y="330" width="100" height="40" as="geometry" />
        </mxCell>
        <mxCell id="Ygmw0eHIz2YQ1cM95j57-14" value="手工导入模块" style="rounded=0;whiteSpace=wrap;html=1;" vertex="1" parent="1">
          <mxGeometry x="670" y="330" width="100" height="40" as="geometry" />
        </mxCell>
        <mxCell id="Ygmw0eHIz2YQ1cM95j57-15" value="规则导入模块" style="rounded=0;whiteSpace=wrap;html=1;" vertex="1" parent="1">
          <mxGeometry x="190" y="380" width="100" height="40" as="geometry" />
        </mxCell>
        <mxCell id="Ygmw0eHIz2YQ1cM95j57-16" value="名单删除" style="rounded=0;whiteSpace=wrap;html=1;" vertex="1" parent="1">
          <mxGeometry x="790" y="245" width="100" height="45" as="geometry" />
        </mxCell>
      </root>
    </mxGraphModel>
  </diagram>
</mxfile>
